<mxfile host="app.diagrams.net" modified="2021-12-07T19:31:32.779Z" agent="5.0 (Windows NT 10.0; Win64; x64) AppleWebKit/537.36 (KHTML, like Gecko) Chrome/96.0.4664.45 Safari/537.36" etag="ZwJRZ9BsXxIlpQ11_Fkr" version="15.9.1" type="github">
  <diagram id="Vr3EENN83JzApCK7x8-m" name="Page-1">
    <mxGraphModel dx="1278" dy="579" grid="1" gridSize="10" guides="1" tooltips="1" connect="1" arrows="1" fold="1" page="1" pageScale="1" pageWidth="850" pageHeight="1100" math="0" shadow="0">
      <root>
        <mxCell id="0" />
        <mxCell id="1" parent="0" />
        <mxCell id="VKAW-Eo63sSe8h64ezcJ-2" style="edgeStyle=orthogonalEdgeStyle;rounded=0;orthogonalLoop=1;jettySize=auto;html=1;" edge="1" parent="1" source="VKAW-Eo63sSe8h64ezcJ-1">
          <mxGeometry relative="1" as="geometry">
            <mxPoint x="365" y="290" as="targetPoint" />
          </mxGeometry>
        </mxCell>
        <mxCell id="VKAW-Eo63sSe8h64ezcJ-1" value="Actor" style="shape=umlActor;verticalLabelPosition=bottom;verticalAlign=top;html=1;outlineConnect=0;" vertex="1" parent="1">
          <mxGeometry x="350" y="40" width="30" height="60" as="geometry" />
        </mxCell>
        <mxCell id="VKAW-Eo63sSe8h64ezcJ-8" value="" style="edgeStyle=orthogonalEdgeStyle;rounded=0;orthogonalLoop=1;jettySize=auto;html=1;" edge="1" parent="1" source="VKAW-Eo63sSe8h64ezcJ-6" target="VKAW-Eo63sSe8h64ezcJ-7">
          <mxGeometry relative="1" as="geometry" />
        </mxCell>
        <mxCell id="VKAW-Eo63sSe8h64ezcJ-6" value="Make deposit&lt;br&gt;" style="rounded=0;whiteSpace=wrap;html=1;" vertex="1" parent="1">
          <mxGeometry x="310" y="290" width="120" height="60" as="geometry" />
        </mxCell>
        <mxCell id="VKAW-Eo63sSe8h64ezcJ-10" value="Is invalid" style="edgeStyle=orthogonalEdgeStyle;rounded=0;orthogonalLoop=1;jettySize=auto;html=1;entryX=1;entryY=0.5;entryDx=0;entryDy=0;" edge="1" parent="1" source="VKAW-Eo63sSe8h64ezcJ-7" target="VKAW-Eo63sSe8h64ezcJ-6">
          <mxGeometry relative="1" as="geometry">
            <Array as="points">
              <mxPoint x="510" y="480" />
              <mxPoint x="510" y="320" />
            </Array>
          </mxGeometry>
        </mxCell>
        <mxCell id="VKAW-Eo63sSe8h64ezcJ-13" value="Is valid" style="edgeStyle=orthogonalEdgeStyle;rounded=0;orthogonalLoop=1;jettySize=auto;html=1;" edge="1" parent="1" source="VKAW-Eo63sSe8h64ezcJ-7" target="VKAW-Eo63sSe8h64ezcJ-12">
          <mxGeometry relative="1" as="geometry" />
        </mxCell>
        <mxCell id="VKAW-Eo63sSe8h64ezcJ-7" value="Validate card&lt;br&gt;" style="rhombus;whiteSpace=wrap;html=1;rounded=0;" vertex="1" parent="1">
          <mxGeometry x="330" y="440" width="80" height="80" as="geometry" />
        </mxCell>
        <mxCell id="VKAW-Eo63sSe8h64ezcJ-15" value="" style="edgeStyle=orthogonalEdgeStyle;rounded=0;orthogonalLoop=1;jettySize=auto;html=1;" edge="1" parent="1" source="VKAW-Eo63sSe8h64ezcJ-12" target="VKAW-Eo63sSe8h64ezcJ-14">
          <mxGeometry relative="1" as="geometry" />
        </mxCell>
        <mxCell id="VKAW-Eo63sSe8h64ezcJ-12" value="Send deposit request to DB" style="whiteSpace=wrap;html=1;rounded=0;" vertex="1" parent="1">
          <mxGeometry x="310" y="630" width="120" height="60" as="geometry" />
        </mxCell>
        <mxCell id="VKAW-Eo63sSe8h64ezcJ-14" value="Update DB&lt;br&gt;" style="whiteSpace=wrap;html=1;rounded=0;" vertex="1" parent="1">
          <mxGeometry x="310" y="800" width="120" height="60" as="geometry" />
        </mxCell>
      </root>
    </mxGraphModel>
  </diagram>
</mxfile>
